<?xml version="1.0" standalone="no"?>
<!DOCTYPE svg PUBLIC "-//W3C//DTD SVG 20010904//EN"
 "http://www.w3.org/TR/2001/REC-SVG-20010904/DTD/svg10.dtd">
<svg version="1.0" xmlns="http://www.w3.org/2000/svg"
 width="1080.000000pt" height="1080.000000pt" viewBox="0 0 1080.000000 1080.000000"
 preserveAspectRatio="xMidYMid meet">
<metadata>
Created by potrace 1.14, written by Peter Selinger 2001-2017
</metadata>
<g transform="translate(0.000000,1080.000000) scale(0.100000,-0.100000)"
fill="#000000" stroke="none">
<path d="M5255 10683 c-1352 -39 -2648 -605 -3604 -1573 -873 -885 -1405
-2033 -1511 -3265 -30 -351 -14 -820 41 -1210 153 -1073 646 -2088 1399 -2878
306 -321 591 -558 975 -810 697 -456 1564 -753 2403 -822 237 -19 668 -19 904
0 1224 102 2402 648 3273 1520 186 186 209 210 339 365 786 935 1228 2139
1228 3345 0 778 -150 1498 -457 2190 -302 683 -784 1337 -1340 1820 -44 39
-82 73 -85 76 -10 11 -245 195 -315 246 -495 361 -1146 669 -1740 824 -497
129 -1002 186 -1510 172z"/>
</g>
</svg>
